<?xml version="1.0" encoding="UTF-8"?>
<svg xmlns="http://www.w3.org/2000/svg" xmlns:xlink="http://www.w3.org/1999/xlink" width="500pt" height="500pt" viewBox="0 0 500 500" version="1.1">
<g id="surface4">
<path style=" stroke:none;fill-rule:nonzero;fill:rgb(0%,50.196078%,50.196078%);fill-opacity:1;" d="M 450 250 L 451.339844 252.011719 L 452.632812 254.054688 L 453.863281 256.117188 L 455.003906 258.203125 L 456.035156 260.308594 L 456.941406 262.429688 L 457.699219 264.5625 L 458.300781 266.699219 L 458.726562 268.835938 L 458.972656 270.96875 L 459.027344 273.085938 L 458.886719 275.1875 L 458.550781 277.265625 L 458.023438 279.316406 L 457.308594 281.332031 L 456.410156 283.308594 L 455.34375 285.25 L 454.121094 287.144531 L 452.753906 288.992188 L 451.269531 290.800781 L 449.675781 292.558594 L 448 294.277344 L 446.261719 295.953125 L 444.484375 297.59375 L 444.871094 299.757812 L 445.652344 302.046875 L 446.363281 304.34375 L 446.988281 306.644531 L 447.507812 308.9375 L 447.902344 311.21875 L 448.152344 313.472656 L 448.25 315.699219 L 448.183594 317.882812 L 447.9375 320.019531 L 447.515625 322.097656 L 446.90625 324.117188 L 446.117188 326.066406 L 445.140625 327.941406 L 443.992188 329.742188 L 442.675781 331.460938 L 441.199219 333.101562 L 439.582031 334.660156 L 437.832031 336.144531 L 435.972656 337.554688 L 434.019531 338.890625 L 431.992188 340.167969 L 429.910156 341.390625 L 427.796875 342.5625 L 427.261719 344.550781 L 427.480469 346.957031 L 427.632812 349.359375 L 427.707031 351.746094 L 427.679688 354.105469 L 427.535156 356.421875 L 427.261719 358.679688 L 426.851562 360.875 L 426.285156 362.996094 L 425.566406 365.027344 L 424.683594 366.960938 L 423.636719 368.792969 L 422.429688 370.515625 L 421.0625 372.121094 L 419.539062 373.613281 L 417.871094 374.988281 L 416.070312 376.246094 L 414.140625 377.390625 L 412.105469 378.429688 L 409.980469 379.367188 L 407.773438 380.214844 L 405.507812 380.980469 L 403.199219 381.679688 L 400.867188 382.320312 L 399.539062 383.824219 L 399.183594 386.21875 L 398.769531 388.59375 L 398.28125 390.933594 L 397.707031 393.226562 L 397.03125 395.453125 L 396.246094 397.597656 L 395.339844 399.648438 L 394.308594 401.589844 L 393.144531 403.410156 L 391.847656 405.097656 L 390.414062 406.652344 L 388.851562 408.058594 L 387.15625 409.316406 L 385.34375 410.425781 L 383.414062 411.386719 L 381.378906 412.199219 L 379.246094 412.871094 L 377.035156 413.414062 L 374.753906 413.835938 L 372.417969 414.148438 L 370.039062 414.363281 L 367.636719 414.5 L 365.21875 414.574219 L 363.316406 415.351562 L 362.40625 417.589844 L 361.445312 419.804688 L 360.421875 421.972656 L 359.328125 424.070312 L 358.152344 426.085938 L 356.890625 428 L 355.539062 429.796875 L 354.085938 431.457031 L 352.539062 432.972656 L 350.890625 434.328125 L 349.144531 435.519531 L 347.304688 436.542969 L 345.375 437.386719 L 343.359375 438.058594 L 341.269531 438.558594 L 339.109375 438.886719 L 336.886719 439.058594 L 334.617188 439.078125 L 332.308594 438.960938 L 329.96875 438.722656 L 327.609375 438.378906 L 325.242188 437.949219 L 322.878906 437.453125 L 320.683594 437.335938 L 319.269531 439.300781 L 317.816406 441.226562 L 316.3125 443.097656 L 314.757812 444.886719 L 313.144531 446.582031 L 311.472656 448.160156 L 309.738281 449.601562 L 307.941406 450.894531 L 306.085938 452.023438 L 304.167969 452.976562 L 302.199219 453.746094 L 300.175781 454.328125 L 298.105469 454.71875 L 295.996094 454.921875 L 293.851562 454.933594 L 291.679688 454.769531 L 289.484375 454.429688 L 287.277344 453.933594 L 285.0625 453.289062 L 282.847656 452.515625 L 280.636719 451.636719 L 278.441406 450.664062 L 276.261719 449.625 L 274.101562 448.546875 L 272.261719 450.117188 L 270.394531 451.648438 L 268.492188 453.117188 L 266.558594 454.503906 L 264.59375 455.78125 L 262.597656 456.933594 L 260.570312 457.945312 L 258.523438 458.796875 L 256.453125 459.476562 L 254.367188 459.976562 L 252.269531 460.285156 L 250.167969 460.398438 L 248.0625 460.316406 L 245.964844 460.039062 L 243.878906 459.570312 L 241.804688 458.917969 L 239.753906 458.09375 L 237.722656 457.105469 L 235.722656 455.972656 L 233.75 454.714844 L 231.8125 453.34375 L 229.90625 451.886719 L 228.03125 450.367188 L 226.191406 448.800781 L 224.085938 449.453125 L 221.90625 450.503906 L 219.710938 451.484375 L 217.503906 452.382812 L 215.289062 453.175781 L 213.074219 453.839844 L 210.867188 454.359375 L 208.667969 454.726562 L 206.492188 454.921875 L 204.34375 454.9375 L 202.226562 454.765625 L 200.152344 454.402344 L 198.121094 453.851562 L 196.140625 453.109375 L 194.214844 452.1875 L 192.351562 451.085938 L 190.542969 449.816406 L 188.800781 448.398438 L 187.117188 446.84375 L 185.496094 445.164062 L 183.933594 443.386719 L 182.421875 441.527344 L 180.957031 439.609375 L 179.539062 437.652344 L 177.5 437.367188 L 175.132812 437.875 L 172.765625 438.316406 L 170.40625 438.675781 L 168.0625 438.933594 L 165.746094 439.070312 L 163.46875 439.070312 L 161.242188 438.925781 L 159.070312 438.621094 L 156.96875 438.148438 L 154.941406 437.507812 L 152.996094 436.6875 L 151.140625 435.695312 L 149.382812 434.53125 L 147.71875 433.199219 L 146.152344 431.707031 L 144.6875 430.070312 L 143.316406 428.292969 L 142.042969 426.398438 L 140.855469 424.398438 L 139.746094 422.3125 L 138.714844 420.152344 L 137.742188 417.945312 L 136.824219 415.710938 L 135.167969 414.582031 L 132.75 414.515625 L 130.339844 414.390625 L 127.957031 414.1875 L 125.613281 413.890625 L 123.324219 413.488281 L 121.097656 412.96875 L 118.957031 412.316406 L 116.90625 411.523438 L 114.957031 410.585938 L 113.125 409.503906 L 111.410156 408.269531 L 109.824219 406.882812 L 108.371094 405.355469 L 107.054688 403.6875 L 105.871094 401.886719 L 104.816406 399.964844 L 103.890625 397.929688 L 103.085938 395.800781 L 102.394531 393.585938 L 101.804688 391.304688 L 101.304688 388.96875 L 100.878906 386.597656 L 100.511719 384.207031 L 99.503906 382.417969 L 97.171875 381.785156 L 94.859375 381.097656 L 92.585938 380.34375 L 90.367188 379.507812 L 88.226562 378.585938 L 86.175781 377.5625 L 84.230469 376.4375 L 82.40625 375.195312 L 80.71875 373.839844 L 79.171875 372.367188 L 77.777344 370.777344 L 76.542969 369.074219 L 75.472656 367.257812 L 74.5625 365.339844 L 73.816406 363.324219 L 73.230469 361.21875 L 72.792969 359.035156 L 72.5 356.785156 L 72.335938 354.476562 L 72.292969 352.125 L 72.347656 349.742188 L 72.492188 347.339844 L 72.699219 344.933594 L 72.542969 342.746094 L 70.421875 341.578125 L 68.335938 340.367188 L 66.296875 339.097656 L 64.332031 337.769531 L 62.457031 336.375 L 60.6875 334.902344 L 59.046875 333.355469 L 57.550781 331.726562 L 56.207031 330.019531 L 55.03125 328.234375 L 54.027344 326.371094 L 53.207031 324.433594 L 52.570312 322.425781 L 52.117188 320.355469 L 51.84375 318.226562 L 51.75 316.050781 L 51.820312 313.832031 L 52.050781 311.578125 L 52.421875 309.304688 L 52.921875 307.011719 L 53.53125 304.710938 L 54.230469 302.414062 L 55 300.121094 L 55.800781 297.851562 L 54.019531 296.21875 L 52.273438 294.546875 L 50.585938 292.835938 L 48.980469 291.082031 L 47.472656 289.285156 L 46.089844 287.441406 L 44.839844 285.554688 L 43.75 283.621094 L 42.824219 281.648438 L 42.078125 279.636719 L 41.519531 277.59375 L 41.152344 275.519531 L 40.984375 273.421875 L 41.007812 271.304688 L 41.222656 269.175781 L 41.621094 267.039062 L 42.191406 264.902344 L 42.929688 262.769531 L 43.8125 260.648438 L 44.824219 258.539062 L 45.949219 256.449219 L 47.167969 254.378906 L 48.453125 252.335938 L 49.785156 250.320312 L 48.871094 248.308594 L 47.570312 246.273438 L 46.328125 244.210938 L 45.171875 242.128906 L 44.121094 240.027344 L 43.195312 237.90625 L 42.410156 235.777344 L 41.785156 233.640625 L 41.328125 231.503906 L 41.054688 229.371094 L 40.96875 227.25 L 41.078125 225.144531 L 41.382812 223.0625 L 41.878906 221.007812 L 42.566406 218.988281 L 43.433594 217.003906 L 44.476562 215.058594 L 45.675781 213.15625 L 47.019531 211.296875 L 48.488281 209.484375 L 50.066406 207.71875 L 51.730469 205.992188 L 53.457031 204.3125 L 55.230469 202.664062 L 55.257812 200.605469 L 54.46875 198.316406 L 53.746094 196.019531 L 53.105469 193.722656 L 52.566406 191.425781 L 52.152344 189.144531 L 51.878906 186.882812 L 51.753906 184.652344 L 51.796875 182.460938 L 52.011719 180.316406 L 52.40625 178.230469 L 52.984375 176.199219 L 53.746094 174.238281 L 54.691406 172.351562 L 55.8125 170.539062 L 57.105469 168.808594 L 58.554688 167.152344 L 60.152344 165.582031 L 61.878906 164.085938 L 63.722656 162.667969 L 65.664062 161.316406 L 67.679688 160.03125 L 69.753906 158.800781 L 71.863281 157.621094 L 72.777344 155.832031 L 72.550781 153.425781 L 72.386719 151.019531 L 72.300781 148.628906 L 72.308594 146.269531 L 72.433594 143.945312 L 72.683594 141.675781 L 73.074219 139.46875 L 73.613281 137.335938 L 74.308594 135.292969 L 75.164062 133.339844 L 76.183594 131.492188 L 77.367188 129.753906 L 78.710938 128.125 L 80.207031 126.617188 L 81.855469 125.222656 L 83.636719 123.945312 L 85.542969 122.785156 L 87.5625 121.726562 L 89.675781 120.773438 L 91.871094 119.914062 L 94.128906 119.136719 L 96.429688 118.429688 L 98.761719 117.777344 L 100.40625 116.554688 L 100.757812 114.164062 L 101.160156 111.785156 L 101.636719 109.4375 L 102.195312 107.136719 L 102.855469 104.898438 L 103.621094 102.738281 L 104.507812 100.671875 L 105.519531 98.714844 L 106.664062 96.871094 L 107.9375 95.160156 L 109.347656 93.585938 L 110.890625 92.15625 L 112.5625 90.875 L 114.359375 89.742188 L 116.273438 88.757812 L 118.292969 87.921875 L 120.40625 87.226562 L 122.605469 86.664062 L 124.878906 86.222656 L 127.207031 85.894531 L 129.578125 85.664062 L 131.980469 85.519531 L 134.394531 85.433594 L 136.542969 85.007812 L 137.445312 82.765625 L 138.398438 80.546875 L 139.410156 78.371094 L 140.492188 76.257812 L 141.652344 74.226562 L 142.902344 72.296875 L 144.242188 70.480469 L 145.675781 68.796875 L 147.207031 67.261719 L 148.839844 65.875 L 150.570312 64.65625 L 152.394531 63.609375 L 154.3125 62.734375 L 156.3125 62.035156 L 158.394531 61.511719 L 160.542969 61.15625 L 162.753906 60.960938 L 165.015625 60.914062 L 167.320312 61.011719 L 169.65625 61.230469 L 172.011719 61.558594 L 174.378906 61.976562 L 176.746094 62.464844 L 179.09375 62.976562 L 180.5 61.011719 L 181.949219 59.078125 L 183.445312 57.195312 L 184.992188 55.390625 L 186.597656 53.679688 L 188.257812 52.082031 L 189.984375 50.617188 L 191.769531 49.300781 L 193.617188 48.144531 L 195.523438 47.164062 L 197.484375 46.363281 L 199.5 45.75 L 201.5625 45.328125 L 203.664062 45.097656 L 205.804688 45.054688 L 207.972656 45.195312 L 210.164062 45.503906 L 212.371094 45.980469 L 214.585938 46.601562 L 216.800781 47.351562 L 219.011719 48.21875 L 221.210938 49.175781 L 223.394531 50.207031 L 225.558594 51.285156 L 227.441406 50.128906 L 229.304688 48.589844 L 231.203125 47.109375 L 233.128906 45.710938 L 235.09375 44.414062 L 237.082031 43.238281 L 239.105469 42.207031 L 241.148438 41.328125 L 243.214844 40.617188 L 245.300781 40.089844 L 247.394531 39.75 L 249.496094 39.605469 L 251.601562 39.65625 L 253.699219 39.902344 L 255.789062 40.34375 L 257.867188 40.964844 L 259.921875 41.765625 L 261.953125 42.726562 L 263.960938 43.835938 L 265.9375 45.078125 L 267.878906 46.429688 L 269.792969 47.875 L 271.671875 49.390625 L 273.519531 50.949219 L 275.570312 50.71875 L 277.746094 49.660156 L 279.9375 48.664062 L 282.144531 47.753906 L 284.355469 46.945312 L 286.570312 46.257812 L 288.78125 45.710938 L 290.980469 45.320312 L 293.160156 45.097656 L 295.316406 45.054688 L 297.4375 45.195312 L 299.519531 45.527344 L 301.558594 46.046875 L 303.546875 46.757812 L 305.480469 47.65625 L 307.355469 48.726562 L 309.171875 49.96875 L 310.925781 51.367188 L 312.617188 52.902344 L 314.25 54.558594 L 315.824219 56.324219 L 317.339844 58.171875 L 318.8125 60.082031 L 320.238281 62.035156 L 322.125 62.71875 L 324.488281 62.203125 L 326.855469 61.75 L 329.21875 61.375 L 331.566406 61.101562 L 333.886719 60.945312 L 336.171875 60.921875 L 338.40625 61.042969 L 340.585938 61.320312 L 342.703125 61.765625 L 344.742188 62.378906 L 346.699219 63.171875 L 348.566406 64.136719 L 350.34375 65.273438 L 352.023438 66.578125 L 353.605469 68.042969 L 355.085938 69.660156 L 356.46875 71.414062 L 357.761719 73.292969 L 358.960938 75.277344 L 360.082031 77.351562 L 361.125 79.5 L 362.105469 81.699219 L 363.03125 83.933594 L 364.449219 85.414062 L 366.867188 85.472656 L 369.277344 85.585938 L 371.664062 85.773438 L 374.015625 86.054688 L 376.316406 86.4375 L 378.550781 86.941406 L 380.710938 87.570312 L 382.777344 88.339844 L 384.738281 89.253906 L 386.59375 90.3125 L 388.324219 91.523438 L 389.929688 92.886719 L 391.40625 94.390625 L 392.746094 96.039062 L 393.949219 97.816406 L 395.023438 99.722656 L 395.96875 101.738281 L 396.792969 103.855469 L 397.503906 106.058594 L 398.109375 108.328125 L 398.621094 110.65625 L 399.058594 113.023438 L 399.433594 115.410156 L 400.121094 117.484375 L 402.457031 118.109375 L 404.773438 118.789062 L 407.054688 119.53125 L 409.285156 120.351562 L 411.4375 121.261719 L 413.503906 122.265625 L 415.46875 123.378906 L 417.3125 124.597656 L 419.023438 125.9375 L 420.59375 127.390625 L 422.011719 128.960938 L 423.269531 130.648438 L 424.367188 132.445312 L 425.304688 134.347656 L 426.074219 136.347656 L 426.6875 138.441406 L 427.148438 140.613281 L 427.464844 142.851562 L 427.644531 145.152344 L 427.707031 147.496094 L 427.667969 149.875 L 427.535156 152.277344 L 427.335938 154.683594 L 427.121094 157.070312 L 429.242188 158.234375 L 431.335938 159.4375 L 433.382812 160.695312 L 435.359375 162.011719 L 437.253906 163.398438 L 439.039062 164.859375 L 440.699219 166.394531 L 442.222656 168.007812 L 443.589844 169.703125 L 444.792969 171.476562 L 445.824219 173.328125 L 446.675781 175.253906 L 447.34375 177.25 L 447.824219 179.3125 L 448.125 181.429688 L 448.246094 183.601562 L 448.203125 185.8125 L 447.996094 188.0625 L 447.648438 190.332031 L 447.167969 192.625 L 446.574219 194.921875 L 445.886719 197.222656 L 445.125 199.511719 L 444.316406 201.792969 L 445.699219 203.519531 L 447.453125 205.183594 L 449.148438 206.890625 L 450.769531 208.636719 L 452.292969 210.425781 L 453.699219 212.261719 L 454.96875 214.144531 L 456.089844 216.066406 L 457.039062 218.035156 L 457.816406 220.039062 L 458.402344 222.078125 L 458.800781 224.148438 L 459.003906 226.242188 L 459.011719 228.355469 L 458.824219 230.484375 L 458.457031 232.621094 L 457.910156 234.757812 L 457.199219 236.890625 L 456.339844 239.015625 L 455.34375 241.125 L 454.234375 243.21875 L 453.03125 245.292969 L 451.757812 247.339844 L 450.429688 249.363281 Z M 450 250 "/>
<path style="fill:none;stroke-width:8;stroke-linecap:butt;stroke-linejoin:miter;stroke:rgb(100%,0%,0%);stroke-opacity:1;stroke-miterlimit:10;" d="M 251 250 L 252.683594 250.027344 L 254.339844 250.085938 L 255.941406 250.179688 L 257.453125 250.296875 L 258.855469 250.441406 L 260.125 250.609375 L 261.234375 250.789062 L 262.171875 250.976562 L 262.917969 251.164062 L 263.457031 251.351562 L 263.789062 251.523438 L 263.898438 251.675781 L 263.789062 251.804688 L 263.464844 251.898438 L 262.929688 251.953125 L 262.191406 251.96875 L 261.269531 251.933594 L 260.171875 251.851562 L 258.925781 251.714844 L 257.546875 251.53125 L 256.066406 251.292969 L 254.5 251.007812 L 252.886719 250.675781 L 251.242188 250.304688 L 252.332031 250.59375 L 253.933594 251.046875 L 255.476562 251.515625 L 256.933594 251.992188 L 258.28125 252.472656 L 259.496094 252.9375 L 260.558594 253.382812 L 261.453125 253.796875 L 262.164062 254.167969 L 262.679688 254.484375 L 262.992188 254.742188 L 263.097656 254.929688 L 262.996094 255.039062 L 262.691406 255.070312 L 262.1875 255.011719 L 261.5 254.863281 L 260.636719 254.625 L 259.617188 254.296875 L 258.460938 253.878906 L 257.183594 253.382812 L 255.8125 252.808594 L 254.375 252.167969 L 252.890625 251.46875 L 251.386719 250.722656 L 251.875 251 L 253.332031 251.820312 L 254.730469 252.644531 L 256.046875 253.460938 L 257.257812 254.253906 L 258.351562 255.003906 L 259.300781 255.703125 L 260.097656 256.328125 L 260.726562 256.875 L 261.179688 257.324219 L 261.449219 257.667969 L 261.539062 257.894531 L 261.445312 258 L 261.171875 257.976562 L 260.726562 257.820312 L 260.117188 257.53125 L 259.359375 257.117188 L 258.46875 256.574219 L 257.460938 255.914062 L 256.359375 255.140625 L 255.175781 254.269531 L 253.9375 253.316406 L 252.667969 252.292969 L 251.382812 251.214844 L 251.375 251.230469 L 252.601562 252.375 L 253.769531 253.511719 L 254.867188 254.625 L 255.875 255.695312 L 256.773438 256.699219 L 257.550781 257.617188 L 258.195312 258.4375 L 258.699219 259.136719 L 259.054688 259.707031 L 259.261719 260.128906 L 259.320312 260.398438 L 259.226562 260.503906 L 258.992188 260.441406 L 258.617188 260.214844 L 258.117188 259.816406 L 257.5 259.257812 L 256.777344 258.542969 L 255.972656 257.683594 L 255.09375 256.691406 L 254.160156 255.582031 L 253.191406 254.371094 L 252.207031 253.082031 L 251.214844 251.738281 L 250.886719 251.292969 L 251.808594 252.695312 L 252.679688 254.085938 L 253.492188 255.4375 L 254.226562 256.726562 L 254.875 257.933594 L 255.425781 259.035156 L 255.875 260.003906 L 256.214844 260.832031 L 256.441406 261.496094 L 256.5625 261.988281 L 256.570312 262.292969 L 256.472656 262.40625 L 256.273438 262.324219 L 255.980469 262.042969 L 255.601562 261.570312 L 255.148438 260.910156 L 254.628906 260.074219 L 254.058594 259.070312 L 253.449219 257.917969 L 252.8125 256.636719 L 252.164062 255.25 L 251.511719 253.773438 L 250.871094 252.238281 L 250.453125 251.203125 L 251.019531 252.789062 L 251.542969 254.351562 L 252.015625 255.871094 L 252.429688 257.3125 L 252.78125 258.65625 L 253.066406 259.878906 L 253.277344 260.957031 L 253.421875 261.871094 L 253.5 262.601562 L 253.507812 263.140625 L 253.453125 263.472656 L 253.339844 263.59375 L 253.171875 263.503906 L 252.960938 263.195312 L 252.714844 262.679688 L 252.433594 261.964844 L 252.136719 261.054688 L 251.824219 259.972656 L 251.507812 258.734375 L 251.195312 257.359375 L 250.890625 255.871094 L 250.609375 254.292969 L 250.347656 252.65625 L 250.121094 251 L 250.296875 252.675781 L 250.4375 254.324219 L 250.539062 255.921875 L 250.601562 257.441406 L 250.628906 258.851562 L 250.617188 260.128906 L 250.570312 261.253906 L 250.5 262.203125 L 250.398438 262.964844 L 250.28125 263.523438 L 250.148438 263.871094 L 250.011719 264 L 249.871094 263.90625 L 249.738281 263.59375 L 249.617188 263.070312 L 249.515625 262.339844 L 249.4375 261.417969 L 249.386719 260.316406 L 249.371094 259.0625 L 249.390625 257.671875 L 249.449219 256.171875 L 249.542969 254.585938 L 249.675781 252.941406 L 249.847656 251.265625 L 249.6875 252.390625 L 249.433594 254.035156 L 249.15625 255.625 L 248.855469 257.128906 L 248.542969 258.523438 L 248.226562 259.785156 L 247.914062 260.894531 L 247.613281 261.832031 L 247.328125 262.578125 L 247.074219 263.128906 L 246.859375 263.46875 L 246.683594 263.59375 L 246.5625 263.507812 L 246.496094 263.207031 L 246.496094 262.699219 L 246.558594 262 L 246.691406 261.113281 L 246.894531 260.0625 L 247.167969 258.859375 L 247.507812 257.535156 L 247.914062 256.105469 L 248.378906 254.597656 L 248.894531 253.039062 L 249.453125 251.457031 L 249.230469 251.988281 L 248.59375 253.53125 L 247.941406 255.019531 L 247.289062 256.421875 L 246.652344 257.722656 L 246.035156 258.894531 L 245.457031 259.921875 L 244.929688 260.789062 L 244.464844 261.476562 L 244.074219 261.980469 L 243.769531 262.292969 L 243.554688 262.40625 L 243.4375 262.324219 L 243.429688 262.050781 L 243.53125 261.585938 L 243.742188 260.949219 L 244.066406 260.148438 L 244.496094 259.195312 L 245.03125 258.117188 L 245.664062 256.925781 L 246.386719 255.648438 L 247.183594 254.304688 L 248.050781 252.917969 L 248.964844 251.515625 L 248.941406 251.519531 L 247.953125 252.871094 L 246.964844 254.171875 L 245.992188 255.394531 L 245.050781 256.519531 L 244.164062 257.53125 L 243.34375 258.414062 L 242.609375 259.152344 L 241.976562 259.738281 L 241.453125 260.160156 L 241.058594 260.417969 L 240.800781 260.503906 L 240.683594 260.425781 L 240.71875 260.183594 L 240.902344 259.785156 L 241.234375 259.238281 L 241.714844 258.558594 L 242.339844 257.757812 L 243.097656 256.851562 L 243.976562 255.859375 L 244.964844 254.800781 L 246.050781 253.691406 L 247.207031 252.558594 L 248.425781 251.414062 L 248.820312 251.039062 L 247.539062 252.125 L 246.261719 253.15625 L 245.019531 254.125 L 243.824219 255.007812 L 242.707031 255.796875 L 241.683594 256.476562 L 240.773438 257.039062 L 239.992188 257.476562 L 239.359375 257.78125 L 238.890625 257.957031 L 238.585938 258.003906 L 238.464844 257.917969 L 238.523438 257.710938 L 238.765625 257.386719 L 239.191406 256.953125 L 239.792969 256.421875 L 240.5625 255.808594 L 241.488281 255.121094 L 242.558594 254.375 L 243.753906 253.589844 L 245.054688 252.777344 L 246.441406 251.953125 L 247.886719 251.128906 L 248.855469 250.597656 L 247.351562 251.351562 L 245.859375 252.058594 L 244.410156 252.710938 L 243.027344 253.296875 L 241.734375 253.804688 L 240.558594 254.234375 L 239.515625 254.578125 L 238.625 254.828125 L 237.910156 254.992188 L 237.378906 255.066406 L 237.039062 255.050781 L 236.90625 254.953125 L 236.980469 254.777344 L 237.257812 254.53125 L 237.742188 254.222656 L 238.421875 253.859375 L 239.285156 253.449219 L 240.324219 253.011719 L 241.515625 252.546875 L 242.84375 252.070312 L 244.285156 251.589844 L 245.816406 251.121094 L 247.410156 250.664062 L 249.019531 250.242188 L 247.375 250.617188 L 245.753906 250.957031 L 244.179688 251.25 L 242.683594 251.496094 L 241.285156 251.691406 L 240.015625 251.832031 L 238.894531 251.925781 L 237.941406 251.964844 L 237.175781 251.960938 L 236.605469 251.910156 L 236.246094 251.820312 L 236.105469 251.699219 L 236.179688 251.546875 L 236.472656 251.378906 L 236.984375 251.195312 L 237.695312 251.007812 L 238.601562 250.816406 L 239.6875 250.636719 L 240.933594 250.46875 L 242.316406 250.320312 L 243.8125 250.195312 L 245.398438 250.097656 L 247.046875 250.035156 L 248.730469 250.003906 L 247.582031 249.980469 L 245.917969 249.925781 L 244.308594 249.839844 L 242.78125 249.722656 L 241.359375 249.582031 L 240.066406 249.417969 L 238.929688 249.242188 L 237.964844 249.054688 L 237.1875 248.863281 L 236.613281 248.679688 L 236.25 248.503906 L 236.105469 248.347656 L 236.179688 248.214844 L 236.46875 248.113281 L 236.972656 248.050781 L 237.675781 248.03125 L 238.570312 248.058594 L 239.640625 248.132812 L 240.867188 248.257812 L 242.226562 248.4375 L 243.691406 248.667969 L 245.246094 248.945312 L 246.855469 249.269531 L 248.492188 249.632812 L 247.925781 249.472656 L 246.320312 249.027344 L 244.765625 248.558594 L 243.292969 248.082031 L 241.925781 247.605469 L 240.6875 247.136719 L 239.597656 246.6875 L 238.675781 246.265625 L 237.9375 245.890625 L 237.390625 245.5625 L 237.046875 245.292969 L 236.90625 245.09375 L 236.976562 244.972656 L 237.25 244.929688 L 237.71875 244.976562 L 238.378906 245.109375 L 239.214844 245.332031 L 240.210938 245.648438 L 241.347656 246.046875 L 242.605469 246.535156 L 243.960938 247.09375 L 245.394531 247.726562 L 246.871094 248.417969 L 248.375 249.15625 L 248.359375 249.128906 L 246.898438 248.3125 L 245.488281 247.484375 L 244.15625 246.667969 L 242.925781 245.871094 L 241.816406 245.109375 L 240.839844 244.40625 L 240.019531 243.765625 L 239.363281 243.207031 L 238.882812 242.742188 L 238.582031 242.378906 L 238.460938 242.132812 L 238.527344 242.007812 L 238.773438 242.011719 L 239.191406 242.148438 L 239.777344 242.414062 L 240.507812 242.808594 L 241.378906 243.332031 L 242.371094 243.976562 L 243.460938 244.730469 L 244.632812 245.585938 L 245.863281 246.527344 L 247.128906 247.539062 L 248.410156 248.609375 L 248.820312 248.949219 L 247.589844 247.808594 L 246.410156 246.667969 L 245.300781 245.546875 L 244.28125 244.472656 L 243.363281 243.457031 L 242.566406 242.519531 L 241.898438 241.683594 L 241.371094 240.964844 L 240.992188 240.375 L 240.757812 239.929688 L 240.679688 239.632812 L 240.75 239.503906 L 240.960938 239.535156 L 241.316406 239.738281 L 241.796875 240.109375 L 242.394531 240.644531 L 243.101562 241.332031 L 243.894531 242.171875 L 244.761719 243.144531 L 245.6875 244.234375 L 246.652344 245.429688 L 247.636719 246.707031 L 248.625 248.042969 L 249.265625 248.929688 L 248.335938 247.527344 L 247.453125 246.132812 L 246.632812 244.773438 L 245.886719 243.472656 L 245.222656 242.25 L 244.65625 241.132812 L 244.191406 240.140625 L 243.832031 239.289062 L 243.585938 238.597656 L 243.449219 238.078125 L 243.425781 237.742188 L 243.507812 237.597656 L 243.6875 237.648438 L 243.96875 237.898438 L 244.332031 238.339844 L 244.777344 238.972656 L 245.285156 239.78125 L 245.847656 240.761719 L 246.453125 241.886719 L 247.085938 243.148438 L 247.734375 244.523438 L 248.386719 245.988281 L 249.027344 247.515625 L 249.640625 249.046875 L 249.066406 247.464844 L 248.535156 245.894531 L 248.054688 244.367188 L 247.632812 242.910156 L 247.269531 241.546875 L 246.976562 240.304688 L 246.75 239.203125 L 246.59375 238.265625 L 246.507812 237.5 L 246.492188 236.933594 L 246.535156 236.566406 L 246.640625 236.410156 L 246.796875 236.46875 L 247 236.742188 L 247.246094 237.222656 L 247.519531 237.910156 L 247.816406 238.789062 L 248.125 239.84375 L 248.441406 241.058594 L 248.757812 242.414062 L 249.0625 243.886719 L 249.347656 245.449219 L 249.609375 247.078125 L 249.847656 248.746094 L 249.726562 247.589844 L 249.582031 245.933594 L 249.472656 244.328125 L 249.40625 242.796875 L 249.375 241.367188 L 249.378906 240.066406 L 249.417969 238.914062 L 249.488281 237.933594 L 249.582031 237.140625 L 249.699219 236.550781 L 249.828125 236.167969 L 249.964844 236.007812 L 250.105469 236.0625 L 250.242188 236.339844 L 250.363281 236.832031 L 250.46875 237.53125 L 250.550781 238.425781 L 250.605469 239.496094 L 250.628906 240.726562 L 250.613281 242.097656 L 250.5625 243.582031 L 250.472656 245.160156 L 250.347656 246.796875 L 250.179688 248.464844 L 250.273438 247.871094 L 250.523438 246.222656 L 250.800781 244.625 L 251.097656 243.105469 L 251.40625 241.691406 L 251.722656 240.40625 L 252.035156 239.269531 L 252.339844 238.304688 L 252.628906 237.527344 L 252.886719 236.945312 L 253.109375 236.570312 L 253.292969 236.410156 L 253.421875 236.464844 L 253.496094 236.730469 L 253.507812 237.203125 L 253.453125 237.875 L 253.332031 238.734375 L 253.140625 239.761719 L 252.878906 240.9375 L 252.550781 242.246094 L 252.152344 243.660156 L 251.699219 245.15625 L 251.191406 246.710938 L 250.636719 248.292969 L 250.671875 248.261719 L 251.304688 246.710938 L 251.953125 245.214844 L 252.605469 243.792969 L 253.25 242.476562 L 253.867188 241.28125 L 254.453125 240.230469 L 254.988281 239.335938 L 255.464844 238.621094 L 255.867188 238.085938 L 256.1875 237.742188 L 256.417969 237.597656 L 256.550781 237.648438 L 256.574219 237.894531 L 256.492188 238.328125 L 256.296875 238.9375 L 255.992188 239.714844 L 255.578125 240.640625 L 255.058594 241.703125 L 254.441406 242.878906 L 253.734375 244.144531 L 252.945312 245.480469 L 252.09375 246.859375 L 251.183594 248.261719 L 250.90625 248.699219 L 251.890625 247.339844 L 252.878906 246.03125 L 253.855469 244.792969 L 254.800781 243.652344 L 255.699219 242.621094 L 256.53125 241.714844 L 257.28125 240.953125 L 257.929688 240.34375 L 258.46875 239.894531 L 258.886719 239.613281 L 259.167969 239.496094 L 259.304688 239.550781 L 259.296875 239.769531 L 259.140625 240.144531 L 258.828125 240.667969 L 258.371094 241.324219 L 257.769531 242.109375 L 257.03125 243 L 256.171875 243.976562 L 255.199219 245.027344 L 254.128906 246.128906 L 252.980469 247.261719 L 251.769531 248.40625 L 250.976562 249.136719 L 252.257812 248.046875 L 253.535156 247.003906 L 254.785156 246.023438 L 255.988281 245.125 L 257.121094 244.320312 L 258.160156 243.625 L 259.089844 243.042969 L 259.890625 242.585938 L 260.546875 242.257812 L 261.046875 242.058594 L 261.375 241.996094 L 261.527344 242.058594 L 261.5 242.246094 L 261.285156 242.554688 L 260.890625 242.972656 L 260.316406 243.488281 L 259.570312 244.089844 L 258.667969 244.765625 L 257.621094 245.503906 L 256.445312 246.28125 L 255.160156 247.09375 L 253.785156 247.917969 L 252.34375 248.738281 L 250.90625 249.523438 L 252.410156 248.765625 L 253.90625 248.050781 L 255.363281 247.390625 L 256.757812 246.792969 L 258.066406 246.269531 L 259.261719 245.828125 L 260.328125 245.472656 L 261.242188 245.203125 L 261.988281 245.027344 L 262.550781 244.941406 L 262.917969 244.941406 L 263.085938 245.027344 L 263.046875 245.191406 L 262.800781 245.425781 L 262.347656 245.726562 L 261.699219 246.082031 L 260.863281 246.480469 L 259.851562 246.917969 L 258.683594 247.378906 L 257.375 247.855469 L 255.949219 248.332031 L 254.433594 248.804688 L 252.847656 249.261719 L 251.21875 249.695312 L 252.363281 249.4375 L 253.992188 249.09375 L 255.574219 248.792969 L 257.085938 248.539062 L 258.5 248.335938 L 259.792969 248.1875 L 260.9375 248.085938 L 261.917969 248.039062 L 262.714844 248.035156 L 263.316406 248.078125 L 263.710938 248.164062 L 263.886719 248.28125 L 263.847656 248.425781 L 263.585938 248.59375 L 263.113281 248.773438 L 262.429688 248.964844 L 261.554688 249.152344 L 260.496094 249.335938 L 259.277344 249.507812 L 257.914062 249.65625 L 256.433594 249.785156 L 254.859375 249.886719 L 253.21875 249.957031 L 251.539062 249.996094 Z M 251 250 "/>
</g>
</svg>
